<?xml version="1.0" standalone="no"?>
<!DOCTYPE svg PUBLIC "-//W3C//DTD SVG 20010904//EN"
 "http://www.w3.org/TR/2001/REC-SVG-20010904/DTD/svg10.dtd">
<svg version="1.0" xmlns="http://www.w3.org/2000/svg"
 width="512.000000pt" height="512.000000pt" viewBox="0 0 512.000000 512.000000"
 preserveAspectRatio="xMidYMid meet">
<metadata>
Created by potrace 1.14, written by Peter Selinger 2001-2017
</metadata>
<g transform="translate(0.000000,512.000000) scale(0.100000,-0.100000)"
fill="#000000" stroke="none">
<path d="M2409 4590 c-16 -16 -29 -37 -29 -48 0 -22 36 -72 51 -72 22 0 137
-62 159 -85 l23 -24 -64 -29 c-101 -46 -184 -85 -323 -151 -70 -33 -129 -61
-131 -61 -1 0 -54 -24 -116 -54 -193 -91 -300 -141 -474 -221 -33 -15 -111
-52 -174 -81 -62 -30 -115 -54 -117 -54 -2 0 -45 -20 -96 -44 -157 -74 -290
-136 -293 -136 -2 0 -64 -29 -140 -65 -75 -36 -138 -65 -140 -65 -2 0 -41 -18
-87 -39 -46 -22 -113 -53 -150 -69 -193 -88 -239 -120 -278 -198 -20 -38 -25
-62 -25 -123 1 -65 5 -84 30 -129 29 -53 73 -94 130 -122 17 -8 32 -18 35 -22
4 -5 5 -530 1 -548 -1 -3 -16 -11 -34 -19 -54 -24 -90 -57 -126 -115 -79 -131
-30 -309 104 -382 28 -15 52 -31 55 -35 3 -4 5 -127 5 -274 l0 -267 -48 -25
c-59 -31 -121 -101 -140 -158 -21 -59 -15 -160 11 -212 22 -42 68 -93 108
-120 61 -40 31 -39 2399 -38 l2280 1 58 23 c74 29 145 86 185 148 64 99 61 50
59 1228 -2 589 -6 1081 -10 1095 -4 14 -9 39 -11 55 -19 132 -72 298 -141 439
-51 104 -78 132 -123 123 -24 -4 -32 2 -69 53 -38 53 -41 61 -31 88 17 45 4
72 -74 152 -244 250 -571 446 -983 587 -166 57 -245 75 -350 80 -164 9 -292
-19 -478 -106 l-87 -41 -53 51 c-52 51 -185 124 -241 133 -22 4 -35 -2 -57
-24z"/>
</g>
</svg>
